<?xml version="1.0" encoding="UTF-8"?>
<svg width="24px" height="24px" viewBox="0 0 24 24" version="1.1" xmlns="http://www.w3.org/2000/svg" xmlns:xlink="http://www.w3.org/1999/xlink">
    <title>ico-unfullscreen</title>
    <desc>Created by Old_Hong with HEART</desc>
    <g id="Page-1" stroke="none" stroke-width="1" fill="none" fill-rule="evenodd">
        <g id="ranking02" transform="translate(-209.000000, -541.000000)" fill="#DC9A4F" fill-rule="nonzero">
            <g id="ico-unfullscreen" transform="translate(209.000000, 541.000000)">
                <path d="M0,21.5997926 L0,2.39986877 C0,1.0743318 1.07462813,0 2.40012277,0 L21.6000466,0 C22.9255835,0 23.9999153,1.0743318 23.9999153,2.39986877 L23.9999153,21.5998349 C23.9999153,22.9253719 22.9255835,24 21.6000466,24 L2.40012277,24 C1.07462813,23.9999577 0,22.9253295 0,21.5997926 Z M21.6000466,1.79992275 L2.40012277,1.79992275 C1.97569017,1.79992275 1.7998804,1.97569017 1.7998804,2.39986877 L1.7998804,21.5998349 C1.7998804,22.0242675 1.97569015,22.2000773 2.40012277,22.2000772 L22.2000349,22.2000772 L22.2000349,2.39986877 C22.2000349,1.97569017 22.0242675,1.79992275 21.6000466,1.79992275 L21.6000466,1.79992275 Z" id="形状"></path>
                <path d="M15.6923077,19.3333333 L15.6923077,17.3333333 C15.6923077,16.2 16.4923077,15.3333333 17.5384615,15.3333333 L19.3846154,15.3333333 C19.7538462,15.3333333 20,15.0666667 20,14.6666667 C20,14.2666667 19.7538462,14 19.3846154,14 L17.5384615,14 C15.8153846,14 14.4615385,15.4666667 14.4615385,17.3333333 L14.4615385,19.3333333 C14.4615385,19.7333333 14.7076923,20 15.0769231,20 C15.4461538,20 15.6923077,19.7333333 15.6923077,19.3333333 Z M14.4615385,4.66666667 L14.4615385,6.66666667 C14.4615385,8.53333333 15.8153846,10 17.5384615,10 L19.3846154,10 C19.7538462,10 20,9.73333333 20,9.33333333 C20,8.93333333 19.7538462,8.66666667 19.3846154,8.66666667 L17.5384615,8.66666667 C16.4923077,8.66666667 15.6923077,7.8 15.6923077,6.66666667 L15.6923077,4.66666667 C15.6923077,4.26666667 15.4461538,4 15.0769231,4 C14.7076923,4 14.4615385,4.26666667 14.4615385,4.66666667 Z M9.53846154,19.3333333 L9.53846154,17.3333333 C9.53846154,15.4666667 8.18461538,14 6.46153846,14 L4.61538462,14 C4.24615385,14 4,14.2666667 4,14.6666667 C4,15.0666667 4.24615385,15.3333333 4.61538462,15.3333333 L6.46153846,15.3333333 C7.50769231,15.3333333 8.30769231,16.2 8.30769231,17.3333333 L8.30769231,19.3333333 C8.30769231,19.7333333 8.55384615,20 8.92307692,20 C9.29230769,20 9.53846154,19.7333333 9.53846154,19.3333333 Z M8.30769231,4.66666667 L8.30769231,6.66666667 C8.30769231,7.8 7.50769231,8.66666667 6.46153846,8.66666667 L4.61538462,8.66666667 C4.24615385,8.66666667 4,8.93333333 4,9.33333333 C4,9.73333333 4.24615385,10 4.61538462,10 L6.46153846,10 C8.18461538,10 9.53846154,8.53333333 9.53846154,6.66666667 L9.53846154,4.66666667 C9.53846154,4.26666667 9.29230769,4 8.92307692,4 C8.55384615,4 8.30769231,4.26666667 8.30769231,4.66666667 Z" id="形状"></path>
            </g>
        </g>
    </g>
</svg>