<?xml version="1.0" encoding="UTF-8"?>
<svg width="24px" height="24px" viewBox="0 0 24 24" version="1.1" xmlns="http://www.w3.org/2000/svg" xmlns:xlink="http://www.w3.org/1999/xlink">
    <title>ico-fullscreen</title>
    <desc>Created by Old_Hong with HEART</desc>
    <g id="Page-1" stroke="none" stroke-width="1" fill="none" fill-rule="evenodd">
        <g id="ranking02" transform="translate(-169.000000, -541.000000)" fill="#DC9A4F" fill-rule="nonzero">
            <g id="ico-fullscreen" transform="translate(169.000000, 541.000000)">
                <path d="M0,21.5997926 L0,2.39986877 C0,1.0743318 1.07462813,0 2.40012277,0 L21.6000466,0 C22.9255835,0 23.9999153,1.0743318 23.9999153,2.39986877 L23.9999153,21.5998349 C23.9999153,22.9253719 22.9255835,24 21.6000466,24 L2.40012277,24 C1.07462813,23.9999577 0,22.9253295 0,21.5997926 Z M21.6000466,1.79992275 L2.40012277,1.79992275 C1.97569017,1.79992275 1.7998804,1.97569017 1.7998804,2.39986877 L1.7998804,21.5998349 C1.7998804,22.0242675 1.97569015,22.2000773 2.40012277,22.2000772 L22.2000349,22.2000772 L22.2000349,2.39986877 C22.2000349,1.97569017 22.0242675,1.79992275 21.6000466,1.79992275 L21.6000466,1.79992275 Z" id="形状"></path>
                <path d="M3.60005714,4.79999154 L3.60005714,7.79984866 C3.60005714,8.29709435 4.00289981,8.6998947 4.50014552,8.6998947 C4.99713722,8.6998947 5.39997989,8.29705202 5.39997989,7.79984866 L5.39997989,5.39997989 L7.80006033,5.39997989 C8.29705202,5.39997989 8.70014869,4.99692555 8.70014869,4.49989153 C8.70014869,4.00285751 8.29705202,3.60005716 7.80006033,3.60005714 L4.79999154,3.60005714 C4.13722305,3.60005714 3.60005716,4.13722303 3.60005714,4.79999154 Z M20.3999005,4.79999154 L20.3999005,7.79984866 C20.3999005,8.29709435 19.9970578,8.6998947 19.5000661,8.6998947 C19.0030744,8.6998947 18.5999778,8.29705202 18.5999778,7.79984866 L18.5999778,5.39997989 L16.2001513,5.39997989 C15.7029056,5.39997989 15.300063,4.99692555 15.300063,4.49989153 C15.300063,4.00285751 15.7029056,3.60005716 16.2001513,3.60005714 L19.1999661,3.60005714 C19.8627346,3.60005714 20.3999005,4.13722303 20.3999005,4.79999154 L20.3999005,4.79999154 Z M3.60005714,19.1999661 L3.60005714,16.1998127 C3.60005714,15.7028633 4.00289981,15.2997666 4.50014552,15.2997666 C4.99713722,15.2997666 5.39997989,15.7028633 5.39997989,16.1998127 L5.39997989,18.5999778 L7.80006033,18.5999778 C8.29705202,18.5999778 8.70014869,19.0028205 8.70014869,19.4998121 C8.70014869,19.9970578 8.29705202,20.3999005 7.80006033,20.3999005 L4.79999154,20.3999005 C4.13722305,20.3999005 3.60005716,19.8626923 3.60005714,19.1999661 L3.60005714,19.1999661 Z M19.1999238,20.3999005 L16.200109,20.3999005 C15.7028633,20.3999005 15.3000206,19.9970578 15.3000206,19.4998121 C15.3000206,19.0028205 15.7028633,18.5999778 16.200109,18.5999778 L18.5999355,18.5999778 L18.5999355,16.1998127 C18.5999355,15.7028633 19.0029898,15.2997666 19.5000238,15.2997666 C19.9970578,15.2997666 20.3998582,15.7028633 20.3998582,16.1998127 L20.3998582,19.1999661 C20.3999005,19.8626923 19.8627346,20.3999005 19.1999238,20.3999005 L19.1999238,20.3999005 Z" id="形状"></path>
            </g>
        </g>
    </g>
</svg>
